<?xml version="1.0" encoding="UTF-8"?><svg id="Capa_1" xmlns="http://www.w3.org/2000/svg" viewBox="0 0 230 132"><defs><style>.cls-1{fill:#23312d;}.cls-2{fill:#fbfcfc;}.cls-3{fill:#1d7f83;}</style></defs><path class="cls-2" d="M15,132H0V0h230v132h-19V6h-60v126h-8V6h-60v5h55v121h-3l-1.5-118h-33c-2,0-2,6,0,6h29.5v112h-4c0-2.7-1.2-2.8-3.5-3.1-10.7-1.2-23.6,1-34.5,0V15h-5s0,117,0,117h-8V6H15v126ZM96,15h-5v111h33.5c1.3,0,1.8-3.7,1.5-5h-30V15Z"/><path class="cls-2" d="M193,132c.1-3.5.6-2.8-2.5-3-11.1-.9-23.3.7-34.5,0V11h50v121h-3V15h-44v111c4.7-2.4,32.8.2,34-1s-.4-4-1.5-4h-27.5V20h34v112h-5Z"/><path class="cls-2" d="M58,132c0-2.7-1.2-2.8-3.5-3.1-10.7-1.2-23.6,1-34.5,0V11h50v121h-3V15H23v109.5c0,.1,1.4,1.5,1.5,1.5h32c1.3,0,1.8-3.7,1.5-5h-30V20h34v112h-4Z"/><path class="cls-3" d="M15,132V6h60v126h-5V11H20v118c11,.9,23.8-1.2,34.5,0,2.3.3,3.5.3,3.5,3.1H15Z"/><path class="cls-1" d="M151,132V6h60v126h-5V11h-50v118c11.2.7,23.4-.9,34.5,0,3.1.2,2.6-.5,2.5,3h-42Z"/><path class="cls-3" d="M62,132V20H28v101h30c.3,1.3-.2,5-1.5,5H24.5c-.1,0-1.5-1.4-1.5-1.5V15h44v117h-5Z"/><path class="cls-1" d="M198,132V20h-34v101h27.5c1.1,0,2.1,3.4,1.5,4-1.2,1.2-29.3-1.3-34,1V15h44v117h-5Z"/><polygon class="cls-1" points="138 132 138 11 83 11 83 6 143 6 143 132 138 132"/><path class="cls-1" d="M135,132h-5V20h-29.5c-2,0-2-6,0-6h33l1.5,118Z"/><path class="cls-3" d="M83,132V15s5,0,5,0v114c11,.9,23.8-1.2,34.5,0s3.5.3,3.5,3.1h-43Z"/><path class="cls-3" d="M96,15v106h30c.3,1.3-.2,5-1.5,5h-33.5V15h5Z"/></svg>
